<?xml version="1.0" encoding="iso-8859-1"?>
<!-- Generator: Adobe Illustrator 18.1.1, SVG Export Plug-In . SVG Version: 6.00 Build 0)  -->
<svg xmlns="http://www.w3.org/2000/svg" xmlns:xlink="http://www.w3.org/1999/xlink" version="1.1" id="Capa_1" x="0px" y="0px" viewBox="0 0 14.88 14.88" style="enable-background:new 0 0 14.88 14.88;" xml:space="preserve" width="24px" height="24px">
<g>
	<g>
		<path d="M10.129,0C8.988,0,7.898,0.453,7.091,1.254C6.828,1.184,6.559,1.148,6.29,1.148    c-0.957,0-1.852,0.429-2.452,1.159C3.757,2.3,3.677,2.296,3.598,2.296c-1.75,0-3.171,1.423-3.171,3.172    c0,1.636,1.226,2.995,2.855,3.156h5.634c0.007,0.001,0.012,0.004,0.018,0.004H9.78h0.003h0.168c0.001,0,0.001-0.001,0.001-0.001    l0.436,0.001l0.015-0.001c2.271-0.141,4.05-2.034,4.05-4.307C14.451,1.938,12.512,0,10.129,0z M10.355,7.666h-0.4    c-0.002,0-0.003,0-0.006,0H9.781H9.779H8.932c-0.001,0-0.001,0-0.001,0H3.353C2.232,7.543,1.387,6.603,1.387,5.469    c0-1.22,0.992-2.211,2.211-2.211c0.117,0,0.239,0.011,0.377,0.035l0.306,0.053l0.175-0.257C5.013,2.258,6.099,1.89,7.067,2.254    l0.312,0.117L7.598,2.12c0.641-0.735,1.563-1.157,2.532-1.157c1.853,0,3.359,1.507,3.359,3.359    C13.489,6.083,12.114,7.55,10.355,7.666z" fill="#FFFFFF"/>
		<path d="M6.411,9.244L5.649,11.16l1.916,0.762l0.762-1.916L6.411,9.244z M7.441,11.635l-1.505-0.598    l2.104-0.908L7.441,11.635z" fill="#FFFFFF"/>
		<path d="M8.327,12.779l1.458,1.459l1.458-1.459l-1.458-1.457L8.327,12.779z M8.639,12.779l1.146-1.145    l0.001,2.291L8.639,12.779z" fill="#FFFFFF"/>
		<path d="M3.007,13.814l1.765,1.066l1.066-1.766l-1.764-1.066L3.007,13.814z M4.697,14.578l-1.387-0.84    l0.838-1.385L4.697,14.578z" fill="#FFFFFF"/>
	</g>
</g>
<g>
</g>
<g>
</g>
<g>
</g>
<g>
</g>
<g>
</g>
<g>
</g>
<g>
</g>
<g>
</g>
<g>
</g>
<g>
</g>
<g>
</g>
<g>
</g>
<g>
</g>
<g>
</g>
<g>
</g>
</svg>
